<?xml version="1.0" standalone="no"?>
<!DOCTYPE svg PUBLIC "-//W3C//DTD SVG 20010904//EN"
 "http://www.w3.org/TR/2001/REC-SVG-20010904/DTD/svg10.dtd">
<svg version="1.0" xmlns="http://www.w3.org/2000/svg"
 width="1024.000000pt" height="1024.000000pt" viewBox="0 0 1024.000000 1024.000000"
 preserveAspectRatio="xMidYMid meet">

<g transform="translate(0.000000,1024.000000) scale(0.100000,-0.100000)"
fill="#000000" stroke="none">
<path d="M4855 8860 c-725 -60 -1440 -345 -2020 -806 -322 -256 -663 -653
-884 -1028 -268 -456 -429 -940 -497 -1491 -23 -189 -23 -585 0 -788 90 -798
391 -1495 897 -2082 179 -207 453 -458 669 -612 517 -368 1130 -601 1775 -675
139 -15 504 -15 655 1 751 79 1399 350 1990 829 140 114 425 400 533 537 440
552 710 1193 813 1930 22 157 30 558 14 741 -65 788 -336 1454 -859 2112 -115
145 -357 385 -516 511 -324 258 -728 488 -1080 616 -239 86 -534 157 -795 190
-149 19 -540 27 -695 15z m125 -1000 l0 -690 -80 0 c-132 0 -375 20 -553 45
-147 21 -605 104 -616 112 -2 1 29 68 68 147 83 166 212 367 328 511 100 124
283 302 389 377 141 101 337 186 427 188 l37 0 0 -690z m400 670 c289 -79 610
-349 871 -733 68 -100 275 -466 267 -471 -6 -4 -349 -67 -469 -86 -198 -32
-449 -58 -626 -66 l-163 -7 0 692 0 691 23 0 c12 0 56 -9 97 -20z m-1345 -233
c-201 -204 -380 -462 -525 -757 -36 -71 -68 -130 -73 -130 -20 0 -581 228
-606 246 -5 4 112 111 208 189 207 167 496 341 751 451 56 24 355 132 370 133
3 1 -53 -59 -125 -132z m2132 102 c154 -55 385 -149 483 -199 232 -116 520
-312 702 -478 l68 -61 -128 -61 c-180 -87 -440 -190 -479 -190 -7 0 -43 59
-79 132 -144 288 -338 564 -534 761 -70 70 -126 127 -124 127 1 0 42 -14 91
-31z m-3402 -1025 c201 -102 520 -234 566 -234 23 0 23 -1 3 -48 -9 -20 -31
-79 -50 -131 -19 -52 -39 -99 -44 -106 -7 -8 33 -10 148 -7 86 2 163 5 170 7
6 3 12 14 12 27 0 12 10 57 23 100 19 70 24 78 42 73 271 -78 979 -175 1281
-175 l64 0 0 -190 0 -190 75 -56 75 -56 65 52 65 52 0 194 0 194 73 0 c169 0
509 34 762 76 153 25 497 92 519 100 8 3 20 -27 36 -86 13 -50 27 -95 30 -100
3 -4 75 -10 160 -12 l155 -3 -48 130 c-26 72 -49 133 -50 138 -1 4 43 22 98
41 115 39 335 136 514 225 l123 62 29 -33 c290 -337 529 -749 668 -1151 91
-264 171 -681 183 -947 l2 -55 -392 -3 -392 -2 0 530 0 531 -102 -3 -103 -3
-3 -1372 c-2 -1299 -3 -1373 -20 -1373 -9 0 -46 5 -82 10 -455 65 -853 84
-1155 55 -82 -8 -170 -15 -195 -14 -42 0 -38 2 45 25 345 94 456 107 908 106
l357 -1 0 1404 0 1405 -22 5 c-173 37 -628 60 -901 45 -95 -5 -188 -12 -207
-15 -270 -48 -449 -104 -650 -205 -128 -64 -338 -211 -442 -308 l-36 -34 -66
56 c-292 247 -605 398 -983 473 -136 27 -144 28 -518 27 -294 0 -414 -4 -531
-17 -83 -9 -154 -17 -157 -17 -4 0 -7 -634 -7 -1410 l0 -1410 348 0 c454 0
586 -15 892 -105 l85 -25 -85 4 c-47 3 -164 10 -260 17 -268 19 -738 -10
-1087 -67 l-33 -5 0 1369 0 1369 -61 7 c-34 3 -82 6 -105 6 l-44 0 0 -530 0
-531 -392 3 -392 3 3 70 c17 538 255 1235 594 1740 87 130 285 378 296 373 3
-2 69 -35 146 -74z m1065 -1044 c445 -39 796 -186 1078 -454 l72 -69 0 -1113
0 -1113 -63 48 c-139 104 -359 221 -522 275 -44 15 -158 43 -254 62 -283 56
-446 74 -743 81 l-268 6 0 1133 0 1132 73 6 c134 11 162 13 337 14 96 1 227
-3 290 -8z m3250 -6 l35 -6 -3 -1134 -2 -1134 -203 0 c-659 0 -1143 -122
-1538 -386 l-109 -72 0 1102 0 1103 88 84 c275 264 603 403 1057 449 90 9 609
4 675 -6z m-4570 -2194 c0 -467 2 -850 4 -850 2 0 84 14 181 31 98 16 257 41
354 54 163 23 177 23 189 8 6 -9 12 -23 12 -30 0 -7 21 -70 46 -139 26 -69 45
-126 43 -128 -2 -2 -83 -29 -179 -61 -195 -65 -342 -124 -455 -183 l-76 -40
-96 117 c-249 300 -375 501 -513 820 -160 369 -244 697 -280 1096 -5 61 -10
120 -10 133 l0 22 390 0 390 0 0 -850z m6004 788 c-24 -288 -38 -379 -85 -580
-39 -167 -57 -225 -146 -463 -141 -377 -311 -667 -577 -985 -44 -52 -81 -96
-82 -98 -1 -2 -44 19 -96 47 -155 83 -546 231 -612 231 -10 0 -16 5 -13 13 3
6 27 78 54 160 l48 147 40 -5 c196 -25 478 -68 559 -85 54 -11 104 -20 112
-20 12 0 14 131 14 850 l0 850 395 0 395 0 -6 -62z m-4214 -1517 c331 -45 455
-83 614 -190 l75 -51 137 0 138 0 70 49 c110 75 174 108 256 130 90 25 363 66
541 82 129 11 552 9 564 -3 7 -6 -61 -247 -74 -260 -3 -4 -40 1 -81 12 -270
69 -589 97 -753 66 -133 -25 -189 -50 -257 -113 -33 -30 -60 -59 -60 -64 0 -5
36 -9 80 -9 99 0 502 -50 675 -85 137 -27 273 -60 282 -69 8 -8 -83 -186 -156
-304 -112 -180 -230 -338 -331 -445 -222 -234 -459 -390 -681 -446 l-74 -19
-5 627 -5 626 -137 3 -138 3 0 -626 0 -625 -24 0 c-84 0 -342 115 -466 208
-101 75 -267 238 -350 342 -140 176 -434 651 -411 664 52 30 688 125 944 141
59 4 107 10 107 15 0 15 -108 108 -150 130 -110 56 -331 74 -557 45 -95 -13
-310 -53 -429 -82 -18 -4 -24 4 -42 49 -20 48 -62 193 -62 210 0 12 80 16 340
13 197 -1 293 -7 420 -24z m2900 -721 c188 -83 210 -94 210 -101 0 -12 -167
-156 -278 -238 -222 -165 -503 -328 -717 -416 -92 -38 -331 -125 -343 -125 -4
0 56 64 134 143 77 78 168 178 201 222 139 185 268 398 349 576 l39 87 160
-55 c88 -31 198 -72 245 -93z m-3687 6 c169 -331 300 -518 517 -738 80 -82
145 -148 144 -148 -1 0 -50 18 -109 40 -448 166 -794 364 -1137 649 -91 75
-113 101 -88 101 6 0 65 23 133 52 104 44 452 176 467 177 3 1 36 -59 73 -133z"/>
</g>
</svg>
